<mxfile host="65bd71144e">
    <diagram id="oKdbCHrUX7vJOcNC9PN8" name="Page-1">
        <mxGraphModel dx="1130" dy="523" grid="1" gridSize="10" guides="1" tooltips="1" connect="1" arrows="1" fold="1" page="1" pageScale="1" pageWidth="850" pageHeight="1100" math="0" shadow="0">
            <root>
                <mxCell id="0"/>
                <mxCell id="1" parent="0"/>
                <mxCell id="16" value="lemony" style="strokeWidth=1;shadow=0;dashed=0;align=center;html=1;shape=mxgraph.mockup.containers.window;align=left;verticalAlign=top;spacingLeft=8;strokeColor2=#008cff;strokeColor3=#c4c4c4;fontColor=#666666;mainText=;fontSize=17;labelBackgroundColor=none;whiteSpace=wrap;movable=0;resizable=0;rotatable=0;deletable=0;editable=0;locked=1;connectable=0;" vertex="1" parent="1">
                    <mxGeometry x="80" y="40" width="680" height="480" as="geometry"/>
                </mxCell>
                <mxCell id="26" value="" style="text;spacing=0;strokeColor=default;align=left;verticalAlign=middle;spacingLeft=7;spacingRight=10;overflow=hidden;points=[[0,0.5],[1,0.5]];portConstraint=eastwest;rotatable=0;whiteSpace=wrap;html=1;fillColor=none;fontColor=#666666;fontSize=17;fontStyle=0" vertex="1" parent="1">
                    <mxGeometry x="145" y="270" width="150" height="90" as="geometry"/>
                </mxCell>
                <mxCell id="17" value="Lemonade&lt;div&gt;Stand :p&lt;/div&gt;" style="text;html=1;align=center;verticalAlign=middle;whiteSpace=wrap;rounded=0;strokeWidth=1;fontSize=25;direction=north;flipH=0;flipV=0;" vertex="1" parent="1">
                    <mxGeometry x="365" y="100" width="120" height="60" as="geometry"/>
                </mxCell>
                <mxCell id="20" value="thing" style="strokeWidth=1;shadow=0;dashed=0;align=center;html=1;shape=mxgraph.mockup.forms.comboBox;strokeColor=default;fillColor=#ddeeff;align=left;fillColor2=#aaddff;mainText=;fontColor=#666666;fontSize=17;spacingLeft=3;fontStyle=0" vertex="1" parent="1">
                    <mxGeometry x="145" y="250" width="150" height="30" as="geometry"/>
                </mxCell>
                <mxCell id="23" value="Item 2" style="text;spacing=0;strokeColor=none;align=left;verticalAlign=middle;spacingLeft=7;spacingRight=10;overflow=hidden;points=[[0,0.5],[1,0.5]];portConstraint=eastwest;rotatable=0;whiteSpace=wrap;html=1;rSize=5;fillColor=none;fontColor=#666666;fontSize=17;fontStyle=0" vertex="1" parent="1">
                    <mxGeometry x="145" y="280" width="150" height="20" as="geometry"/>
                </mxCell>
                <mxCell id="22" value="Item 1" style="text;spacing=0;strokeColor=none;align=left;verticalAlign=middle;spacingLeft=7;spacingRight=10;overflow=hidden;points=[[0,0.5],[1,0.5]];portConstraint=eastwest;rotatable=0;whiteSpace=wrap;html=1;fillColor=none;fontColor=#666666;fontSize=17;fontStyle=0" vertex="1" parent="1">
                    <mxGeometry x="145" y="300" width="150" height="20" as="geometry"/>
                </mxCell>
                <mxCell id="24" value="Item 3" style="text;spacing=0;strokeColor=none;align=left;verticalAlign=middle;spacingLeft=7;spacingRight=10;overflow=hidden;points=[[0,0.5],[1,0.5]];portConstraint=eastwest;rotatable=0;whiteSpace=wrap;html=1;rSize=5;fillColor=#DDEEFF;fontColor=#666666;fontSize=17;fontStyle=0" vertex="1" parent="1">
                    <mxGeometry x="145" y="320" width="150" height="20" as="geometry"/>
                </mxCell>
                <mxCell id="25" value="Item 4" style="text;spacing=0;strokeColor=none;align=left;verticalAlign=middle;spacingLeft=7;spacingRight=10;overflow=hidden;points=[[0,0.5],[1,0.5]];portConstraint=eastwest;rotatable=0;whiteSpace=wrap;html=1;fillColor=none;fontColor=#666666;fontSize=17;fontStyle=0" vertex="1" parent="1">
                    <mxGeometry x="145" y="340" width="150" height="20" as="geometry"/>
                </mxCell>
                <mxCell id="27" value="Small" style="shape=ellipse;fillColor=#eeeeee;strokeColor=#999999;gradientColor=#cccccc;html=1;align=left;spacingLeft=4;fontSize=17;fontColor=#666666;labelPosition=right;shadow=0;" vertex="1" parent="1">
                    <mxGeometry x="365" y="210" width="15" height="15" as="geometry"/>
                </mxCell>
                <mxCell id="28" value="Medium" style="shape=ellipse;fillColor=#eeeeee;strokeColor=#999999;gradientColor=#cccccc;html=1;align=left;spacingLeft=4;fontSize=17;fontColor=#666666;labelPosition=right;shadow=0;" vertex="1" parent="1">
                    <mxGeometry x="365" y="255" width="15" height="15" as="geometry"/>
                </mxCell>
                <mxCell id="29" value="Large" style="shape=ellipse;fillColor=#eeeeee;strokeColor=#999999;gradientColor=#cccccc;html=1;align=left;spacingLeft=4;fontSize=17;fontColor=#666666;labelPosition=right;shadow=0;" vertex="1" parent="1">
                    <mxGeometry x="365" y="300" width="15" height="15" as="geometry"/>
                </mxCell>
                <mxCell id="32" value="Ice?" style="strokeWidth=1;shadow=0;dashed=0;align=center;html=1;shape=mxgraph.mockup.forms.rrect;rSize=0;fillColor=#eeeeee;strokeColor=#999999;gradientColor=#cccccc;align=left;spacingLeft=4;fontSize=17;fontColor=#666666;labelPosition=right;" vertex="1" parent="1">
                    <mxGeometry x="365" y="345" width="15" height="15" as="geometry"/>
                </mxCell>
                <mxCell id="33" value="" style="strokeWidth=1;shadow=0;dashed=0;align=center;html=1;shape=mxgraph.mockup.forms.spinner;strokeColor=#999999;spinLayout=right;spinStyle=normal;adjStyle=triangle;fillColor=#aaddff;fontSize=17;fontColor=#666666;mainText=;html=1;overflow=fill;" vertex="1" parent="1">
                    <mxGeometry x="180" y="210" width="80" height="32" as="geometry"/>
                </mxCell>
                <mxCell id="38" value="Quanitiy" style="text;html=1;align=center;verticalAlign=middle;whiteSpace=wrap;rounded=0;" vertex="1" parent="1">
                    <mxGeometry x="190" y="180" width="60" height="30" as="geometry"/>
                </mxCell>
                <mxCell id="40" value="Add to Order" style="strokeWidth=1;shadow=0;dashed=0;align=center;html=1;shape=mxgraph.mockup.buttons.button;strokeColor=#666666;fontColor=#ffffff;mainText=;buttonStyle=round;fontSize=17;fontStyle=1;fillColor=#008cff;whiteSpace=wrap;" vertex="1" parent="1">
                    <mxGeometry x="255" y="430" width="150" height="50" as="geometry"/>
                </mxCell>
                <mxCell id="41" value="Pay" style="strokeWidth=1;shadow=0;dashed=0;align=center;html=1;shape=mxgraph.mockup.buttons.button;strokeColor=#666666;fontColor=#ffffff;mainText=;buttonStyle=round;fontSize=17;fontStyle=1;fillColor=#008cff;whiteSpace=wrap;" vertex="1" parent="1">
                    <mxGeometry x="460" y="430" width="150" height="50" as="geometry"/>
                </mxCell>
            </root>
        </mxGraphModel>
    </diagram>
</mxfile>